# Blender v2.91.2 OBJ File: ''
# www.blender.org
mtllib star.mtl
o Circle
v -0.079704 0.100000 -0.424042
v 0.079704 0.100000 -0.424042
v 0.000000 0.000000 -0.238186
v 0.000000 0.100000 -0.399027
v 0.000000 0.042264 -0.364121
v 0.027345 0.029289 -0.347621
v -0.027344 0.029289 -0.347621
v -0.508081 0.100000 -0.748625
v -0.384992 0.000000 -0.529896
v -0.554979 0.100000 -0.714552
v -0.434029 0.029289 -0.655768
v -0.513897 0.042264 -0.707318
v -0.489550 0.029289 -0.615429
v -0.554832 0.100000 -0.763660
v -0.378658 0.100000 -0.206839
v -0.226528 0.000000 -0.073604
v -0.427918 0.100000 -0.055233
v -0.322158 0.029289 -0.133427
v -0.346300 0.042264 -0.112520
v -0.339057 0.029289 -0.081415
v -0.379497 0.100000 -0.123306
v -0.868990 0.100000 0.251876
v -0.622930 0.000000 0.202402
v -0.851077 0.100000 0.307008
v -0.757794 0.029289 0.210143
v -0.831503 0.042264 0.270172
v -0.736587 0.029289 0.275411
v -0.897736 0.100000 0.291692
v -0.313728 0.100000 0.296208
v -0.140002 0.000000 0.192696
v -0.184763 0.100000 0.389906
v -0.226449 0.029289 0.265159
v -0.214025 0.042264 0.294580
v -0.182204 0.029289 0.297304
v -0.234542 0.100000 0.322819
v -0.028984 0.100000 0.904293
v 0.000000 0.000000 0.654987
v 0.028985 0.100000 0.904293
v -0.034314 0.029289 0.785643
v 0.000000 0.042264 0.874294
v 0.034314 0.029289 0.785643
v 0.000000 0.100000 0.943936
v 0.184764 0.100000 0.389906
v 0.140002 0.000000 0.192696
v 0.313728 0.100000 0.296208
v 0.182205 0.029289 0.297304
v 0.214025 0.042264 0.294580
v 0.226449 0.029289 0.265159
v 0.234542 0.100000 0.322819
v 0.851077 0.100000 0.307008
v 0.622930 0.000000 0.202402
v 0.868990 0.100000 0.251876
v 0.736587 0.029289 0.275411
v 0.831503 0.042264 0.270172
v 0.757794 0.029289 0.210143
v 0.897736 0.100000 0.291692
v 0.427918 0.100000 -0.055233
v 0.226528 0.000000 -0.073604
v 0.378658 0.100000 -0.206840
v 0.339057 0.029289 -0.081415
v 0.346300 0.042264 -0.112520
v 0.322158 0.029289 -0.133427
v 0.379497 0.100000 -0.123306
v 0.554978 0.100000 -0.714552
v 0.384992 0.000000 -0.529896
v 0.508081 0.100000 -0.748625
v 0.489550 0.029289 -0.615429
v 0.513897 0.042264 -0.707319
v 0.434029 0.029289 -0.655768
v 0.554831 0.100000 -0.763660
v -0.079704 0.124536 -0.424042
v 0.000000 0.224536 -0.238186
v 0.079704 0.124536 -0.424042
v -0.027344 0.195246 -0.347621
v 0.000000 0.182272 -0.364121
v 0.027345 0.195246 -0.347621
v 0.000000 0.124536 -0.399027
v -0.508081 0.124536 -0.748625
v -0.554979 0.124536 -0.714552
v -0.384992 0.224536 -0.529896
v -0.554832 0.124536 -0.763660
v -0.513897 0.182272 -0.707319
v -0.489550 0.195246 -0.615429
v -0.434029 0.195246 -0.655768
v -0.378658 0.124536 -0.206839
v -0.427918 0.124536 -0.055233
v -0.226528 0.224536 -0.073604
v -0.379497 0.124536 -0.123306
v -0.346300 0.182272 -0.112520
v -0.339057 0.195246 -0.081415
v -0.322158 0.195246 -0.133427
v -0.868990 0.124536 0.251876
v -0.851077 0.124536 0.307008
v -0.622930 0.224536 0.202402
v -0.897736 0.124536 0.291692
v -0.831503 0.182272 0.270172
v -0.736587 0.195246 0.275411
v -0.757794 0.195246 0.210143
v -0.313728 0.124536 0.296208
v -0.184763 0.124536 0.389906
v -0.140002 0.224536 0.192696
v -0.234542 0.124536 0.322819
v -0.214025 0.182272 0.294580
v -0.182204 0.195246 0.297304
v -0.226449 0.195246 0.265159
v -0.028984 0.124536 0.904293
v 0.028985 0.124536 0.904293
v 0.000000 0.224536 0.654987
v 0.000000 0.124536 0.943936
v 0.000000 0.182272 0.874294
v 0.034314 0.195246 0.785643
v -0.034314 0.195246 0.785643
v 0.184764 0.124536 0.389906
v 0.313728 0.124536 0.296208
v 0.140002 0.224536 0.192696
v 0.234542 0.124536 0.322819
v 0.214025 0.182272 0.294580
v 0.226449 0.195246 0.265159
v 0.182205 0.195246 0.297304
v 0.851077 0.124536 0.307008
v 0.868990 0.124536 0.251876
v 0.622930 0.224536 0.202402
v 0.897736 0.124536 0.291692
v 0.831503 0.182272 0.270172
v 0.757794 0.195246 0.210143
v 0.736587 0.195246 0.275411
v 0.427918 0.124536 -0.055233
v 0.378658 0.124536 -0.206840
v 0.226528 0.224536 -0.073604
v 0.379497 0.124536 -0.123306
v 0.346300 0.182272 -0.112520
v 0.322158 0.195246 -0.133427
v 0.339057 0.195246 -0.081415
v 0.554978 0.124536 -0.714552
v 0.508081 0.124536 -0.748625
v 0.384992 0.224536 -0.529896
v 0.554831 0.124536 -0.763660
v 0.513897 0.182272 -0.707319
v 0.434029 0.195246 -0.655768
v 0.489550 0.195246 -0.615429
vt 0.000000 0.000000
vt 0.000000 0.000000
vt 0.000000 0.000000
vt 0.000000 0.000000
vt 0.000000 0.000000
vt 0.000000 0.000000
vt 0.000000 0.000000
vt 0.000000 0.000000
vt 0.000000 0.000000
vt 0.000000 0.000000
vt 0.000000 0.000000
vt 0.000000 0.000000
vt 0.000000 0.000000
vt 0.000000 0.000000
vt 0.000000 0.000000
vt 0.000000 0.000000
vt 0.000000 0.000000
vt 0.000000 0.000000
vt 0.000000 0.000000
vt 0.000000 0.000000
vt 0.000000 0.000000
vt 0.000000 0.000000
vt 0.000000 0.000000
vt 0.000000 0.000000
vt 0.000000 0.000000
vt 0.000000 0.000000
vt 0.000000 0.000000
vt 0.000000 0.000000
vt 0.000000 0.000000
vt 0.000000 0.000000
vt 0.000000 0.000000
vt 0.000000 0.000000
vt 0.000000 0.000000
vt 0.000000 0.000000
vt 0.000000 0.000000
vt 0.000000 0.000000
vt 0.000000 0.000000
vt 0.000000 0.000000
vt 0.000000 0.000000
vt 0.000000 0.000000
vt 0.000000 0.000000
vt 0.000000 0.000000
vt 0.000000 0.000000
vt 0.000000 0.000000
vt 0.000000 0.000000
vt 0.000000 0.000000
vt 0.000000 0.000000
vt 0.000000 0.000000
vt 0.000000 0.000000
vt 0.000000 0.000000
vt 0.000000 0.000000
vt 0.000000 0.000000
vt 0.000000 0.000000
vt 0.000000 0.000000
vt 0.000000 0.000000
vt 0.000000 0.000000
vt 0.000000 0.000000
vt 0.000000 0.000000
vt 0.000000 0.000000
vt 0.000000 0.000000
vt 0.000000 0.000000
vt 0.000000 0.000000
vt 0.000000 0.000000
vt 0.000000 0.000000
vt 0.000000 0.000000
vt 0.000000 0.000000
vt 0.000000 0.000000
vt 0.000000 0.000000
vt 0.000000 0.000000
vt 0.000000 0.000000
vt 0.000000 0.000000
vt 0.000000 0.000000
vt 0.000000 0.000000
vt 0.000000 0.000000
vt 0.000000 0.000000
vt 0.000000 0.000000
vt 0.000000 0.000000
vt 0.000000 0.000000
vt 0.000000 0.000000
vt 0.000000 0.000000
vt 0.000000 0.000000
vt 0.000000 0.000000
vt 0.000000 0.000000
vt 0.000000 0.000000
vt 0.000000 0.000000
vt 0.000000 0.000000
vt 0.000000 0.000000
vt 0.000000 0.000000
vt 0.000000 0.000000
vt 0.000000 0.000000
vt 0.000000 0.000000
vt 0.000000 0.000000
vt 0.000000 0.000000
vt 0.000000 0.000000
vt 0.000000 0.000000
vt 0.000000 0.000000
vt 0.000000 0.000000
vt 0.000000 0.000000
vt 0.000000 0.000000
vt 0.000000 0.000000
vt 0.000000 0.000000
vt 0.000000 0.000000
vt 0.000000 0.000000
vt 0.000000 0.000000
vt 0.000000 0.000000
vt 0.000000 0.000000
vt 0.000000 0.000000
vt 0.000000 0.000000
vt 0.000000 0.000000
vt 0.000000 0.000000
vt 0.000000 0.000000
vt 0.000000 0.000000
vt 0.000000 0.000000
vt 0.000000 0.000000
vt 0.000000 0.000000
vt 0.000000 0.000000
vt 0.000000 0.000000
vt 0.000000 0.000000
vt 0.000000 0.000000
vt 0.000000 0.000000
vt 0.000000 0.000000
vt 0.000000 0.000000
vt 0.000000 0.000000
vt 0.000000 0.000000
vt 0.000000 0.000000
vt 0.000000 0.000000
vt 0.000000 0.000000
vt 0.000000 0.000000
vt 0.000000 0.000000
vt 0.000000 0.000000
vt 0.000000 0.000000
vt 0.000000 0.000000
vt 0.000000 0.000000
vt 0.000000 0.000000
vt 0.000000 0.000000
vt 0.000000 0.000000
vt 0.000000 0.000000
vt 0.000000 0.000000
vt 0.000000 0.000000
vt 0.000000 0.000000
vn -0.6039 0.0000 -0.7970
vn -0.5714 0.0000 -0.8207
vn 0.0000 1.0000 0.0000
vn -0.0201 0.0000 0.9998
vn 0.0201 0.0000 0.9998
vn -0.9447 0.0000 0.3281
vn 0.5714 0.0000 -0.8207
vn -0.9571 0.0000 0.2898
vn 0.0000 -1.0000 0.0000
vn 0.9447 0.0000 0.3281
vn 0.9571 -0.0000 0.2898
vn 0.1364 -0.6165 -0.7755
vn -0.1364 -0.6165 -0.7755
vn 0.0000 -0.9480 -0.3182
vn 0.3358 -0.5702 -0.7497
vn -0.1112 -0.9819 -0.1531
vn -0.8168 -0.5702 0.0877
vn -0.7797 -0.6165 -0.1099
vn -0.3026 -0.9480 -0.0983
vn -0.6954 -0.6165 -0.3694
vn -0.6092 -0.5702 -0.5511
vn -0.1800 -0.9819 0.0585
vn -0.1690 -0.5702 0.8039
vn -0.3454 -0.6165 0.7075
vn -0.1870 -0.9480 0.2574
vn -0.5662 -0.6165 0.5472
vn -0.7124 -0.5702 0.4091
vn -0.0000 -0.9819 0.1892
vn 0.7124 -0.5702 0.4091
vn 0.5662 -0.6165 0.5472
vn 0.1870 -0.9480 0.2574
vn 0.3454 -0.6165 0.7075
vn 0.1690 -0.5702 0.8039
vn 0.1800 -0.9819 0.0585
vn 0.6092 -0.5702 -0.5511
vn 0.6954 -0.6165 -0.3694
vn 0.3026 -0.9480 -0.0983
vn 0.7797 -0.6165 -0.1099
vn 0.8168 -0.5702 0.0877
vn 0.1112 -0.9819 -0.1531
vn -0.3358 -0.5702 -0.7497
vn 0.1364 0.6165 -0.7755
vn 0.0000 0.9480 -0.3182
vn -0.1364 0.6165 -0.7755
vn 0.3358 0.5702 -0.7497
vn -0.8168 0.5702 0.0877
vn -0.1112 0.9819 -0.1531
vn -0.7797 0.6165 -0.1099
vn -0.6954 0.6165 -0.3694
vn -0.3026 0.9480 -0.0983
vn -0.6092 0.5702 -0.5511
vn -0.1690 0.5702 0.8039
vn -0.1800 0.9819 0.0585
vn -0.3454 0.6165 0.7075
vn -0.5662 0.6165 0.5472
vn -0.1870 0.9480 0.2574
vn -0.7124 0.5702 0.4091
vn 0.7124 0.5702 0.4091
vn 0.0000 0.9819 0.1892
vn 0.5662 0.6165 0.5472
vn 0.3454 0.6165 0.7075
vn 0.1870 0.9480 0.2574
vn 0.1690 0.5702 0.8039
vn 0.6092 0.5702 -0.5511
vn 0.1800 0.9819 0.0585
vn 0.6954 0.6165 -0.3694
vn 0.7797 0.6165 -0.1099
vn 0.3026 0.9480 -0.0983
vn 0.8168 0.5702 0.0877
vn -0.3358 0.5702 -0.7497
vn 0.1112 0.9819 -0.1531
vn 0.5580 -0.3827 -0.7364
vn 0.2311 -0.9239 -0.3050
vn -0.8727 -0.3827 0.3031
vn -0.3615 -0.9239 0.1255
vn -0.5279 -0.3827 -0.7582
vn -0.2187 -0.9239 -0.3141
vn 0.0186 -0.3827 0.9237
vn 0.0077 -0.9239 0.3826
vn -0.8842 -0.3827 0.2678
vn -0.3663 -0.9239 0.1109
vn 0.8842 -0.3827 0.2678
vn 0.3663 -0.9239 0.1109
vn -0.0186 -0.3827 0.9237
vn -0.0077 -0.9239 0.3826
vn 0.5279 -0.3827 -0.7582
vn 0.2187 -0.9239 -0.3141
vn 0.8727 -0.3827 0.3031
vn 0.3615 -0.9239 0.1255
vn -0.5580 -0.3827 -0.7364
vn -0.2311 -0.9239 -0.3050
vn 0.2311 0.9239 -0.3050
vn 0.5580 0.3827 -0.7364
vn -0.3615 0.9239 0.1255
vn -0.8727 0.3827 0.3031
vn -0.2187 0.9239 -0.3141
vn -0.5279 0.3827 -0.7582
vn 0.0077 0.9239 0.3826
vn 0.0186 0.3827 0.9237
vn -0.3663 0.9239 0.1109
vn -0.8842 0.3827 0.2678
vn 0.3663 0.9239 0.1109
vn 0.8842 0.3827 0.2678
vn -0.0077 0.9239 0.3826
vn -0.0186 0.3827 0.9237
vn 0.2187 0.9239 -0.3141
vn 0.5279 0.3827 -0.7582
vn 0.3615 0.9239 0.1255
vn 0.8727 0.3827 0.3031
vn -0.2311 0.9239 -0.3050
vn -0.5580 0.3827 -0.7364
vn -0.8149 -0.0000 -0.5796
vn -0.9999 0.0000 -0.0100
vn 0.3062 -0.0000 -0.9520
vn -1.0000 0.0000 -0.0030
vn -0.3062 0.0000 -0.9520
vn 1.0000 0.0000 -0.0030
vn 0.8149 -0.0000 -0.5796
vn 0.9999 0.0000 -0.0100
vn 0.3186 0.0000 0.9479
vn 0.8031 0.0000 0.5959
vn -0.8073 0.0000 0.5902
vn 0.8073 -0.0000 0.5902
vn -0.3119 0.0000 0.9501
vn -0.8108 0.0000 -0.5854
vn 0.2994 -0.0000 -0.9541
vn -0.2995 -0.0000 -0.9541
vn 0.8108 0.0000 -0.5854
vn 0.3119 0.0000 0.9501
vn -0.8031 0.0000 0.5959
vn -0.3186 0.0000 0.9479
vn 0.6039 -0.0000 -0.7970
usemtl None
s off
f 66/1/1 2/2/1 73/3/1 135/4/1
f 17/5/2 22/6/2 92/7/2 86/8/2
f 80/9/3 87/10/3 94/11/3 101/12/3 108/13/3 115/14/3 122/15/3 129/16/3 136/17/3 72/18/3
f 45/19/4 50/20/4 120/21/4 114/22/4
f 24/23/5 29/24/5 99/25/5 93/26/5
f 10/27/6 15/28/6 85/29/6 79/30/6
f 52/31/7 57/32/7 127/33/7 121/34/7
f 31/35/8 36/36/8 106/37/8 100/38/8
f 9/39/9 3/40/9 65/41/9 58/42/9 51/43/9 44/44/9 37/45/9 30/46/9 23/47/9 16/48/9
f 59/49/10 64/50/10 134/51/10 128/52/10
f 38/53/11 43/54/11 113/55/11 107/56/11
f 1/57/12 4/58/12 5/59/12 7/60/12
f 2/2/13 6/61/13 5/59/13 4/58/13
f 3/40/14 7/60/14 5/59/14 6/61/14
f 8/62/15 11/63/15 12/64/15 14/65/15
f 9/39/16 13/66/16 12/64/16 11/63/16
f 10/27/17 14/65/17 12/64/17 13/66/17
f 15/28/18 18/67/18 19/68/18 21/69/18
f 16/48/19 20/70/19 19/68/19 18/67/19
f 17/5/20 21/69/20 19/68/20 20/70/20
f 22/6/21 25/71/21 26/72/21 28/73/21
f 23/47/22 27/74/22 26/72/22 25/71/22
f 24/23/23 28/73/23 26/72/23 27/74/23
f 29/24/24 32/75/24 33/76/24 35/77/24
f 30/46/25 34/78/25 33/76/25 32/75/25
f 31/35/26 35/77/26 33/76/26 34/78/26
f 36/36/27 39/79/27 40/80/27 42/81/27
f 37/45/28 41/82/28 40/80/28 39/79/28
f 38/53/29 42/81/29 40/80/29 41/82/29
f 43/54/30 46/83/30 47/84/30 49/85/30
f 44/44/31 48/86/31 47/84/31 46/83/31
f 45/19/32 49/85/32 47/84/32 48/86/32
f 50/20/33 53/87/33 54/88/33 56/89/33
f 51/43/34 55/90/34 54/88/34 53/87/34
f 52/31/35 56/89/35 54/88/35 55/90/35
f 57/32/36 60/91/36 61/92/36 63/93/36
f 58/42/37 62/94/37 61/92/37 60/91/37
f 59/49/38 63/93/38 61/92/38 62/94/38
f 64/50/39 67/95/39 68/96/39 70/97/39
f 65/41/40 69/98/40 68/96/40 67/95/40
f 66/1/41 70/97/41 68/96/41 69/98/41
f 71/99/42 74/100/42 75/101/42 77/102/42
f 72/18/43 76/103/43 75/101/43 74/100/43
f 73/3/44 77/102/44 75/101/44 76/103/44
f 78/104/45 81/105/45 82/106/45 84/107/45
f 79/30/46 83/108/46 82/106/46 81/105/46
f 80/9/47 84/107/47 82/106/47 83/108/47
f 85/29/48 88/109/48 89/110/48 91/111/48
f 86/8/49 90/112/49 89/110/49 88/109/49
f 87/10/50 91/111/50 89/110/50 90/112/50
f 92/7/51 95/113/51 96/114/51 98/115/51
f 93/26/52 97/116/52 96/114/52 95/113/52
f 94/11/53 98/115/53 96/114/53 97/116/53
f 99/25/54 102/117/54 103/118/54 105/119/54
f 100/38/55 104/120/55 103/118/55 102/117/55
f 101/12/56 105/119/56 103/118/56 104/120/56
f 106/37/57 109/121/57 110/122/57 112/123/57
f 107/56/58 111/124/58 110/122/58 109/121/58
f 108/13/59 112/123/59 110/122/59 111/124/59
f 113/55/60 116/125/60 117/126/60 119/127/60
f 114/22/61 118/128/61 117/126/61 116/125/61
f 115/14/62 119/127/62 117/126/62 118/128/62
f 120/21/63 123/129/63 124/130/63 126/131/63
f 121/34/64 125/132/64 124/130/64 123/129/64
f 122/15/65 126/131/65 124/130/65 125/132/65
f 127/33/66 130/133/66 131/134/66 133/135/66
f 128/52/67 132/136/67 131/134/67 130/133/67
f 129/16/68 133/135/68 131/134/68 132/136/68
f 134/51/69 137/137/69 138/138/69 140/139/69
f 135/4/70 139/140/70 138/138/70 137/137/70
f 136/17/71 140/139/71 138/138/71 139/140/71
f 8/62/72 1/57/72 7/60/72 11/63/72
f 11/63/73 7/60/73 3/40/73 9/39/73
f 15/28/74 10/27/74 13/66/74 18/67/74
f 18/67/75 13/66/75 9/39/75 16/48/75
f 22/6/76 17/5/76 20/70/76 25/71/76
f 25/71/77 20/70/77 16/48/77 23/47/77
f 29/24/78 24/23/78 27/74/78 32/75/78
f 32/75/79 27/74/79 23/47/79 30/46/79
f 36/36/80 31/35/80 34/78/80 39/79/80
f 39/79/81 34/78/81 30/46/81 37/45/81
f 43/54/82 38/53/82 41/82/82 46/83/82
f 46/83/83 41/82/83 37/45/83 44/44/83
f 50/20/84 45/19/84 48/86/84 53/87/84
f 53/87/85 48/86/85 44/44/85 51/43/85
f 57/32/86 52/31/86 55/90/86 60/91/86
f 60/91/87 55/90/87 51/43/87 58/42/87
f 64/50/88 59/49/88 62/94/88 67/95/88
f 67/95/89 62/94/89 58/42/89 65/41/89
f 2/2/90 66/1/90 69/98/90 6/61/90
f 6/61/91 69/98/91 65/41/91 3/40/91
f 80/9/92 72/18/92 74/100/92 84/107/92
f 84/107/93 74/100/93 71/99/93 78/104/93
f 87/10/94 80/9/94 83/108/94 91/111/94
f 91/111/95 83/108/95 79/30/95 85/29/95
f 94/11/96 87/10/96 90/112/96 98/115/96
f 98/115/97 90/112/97 86/8/97 92/7/97
f 101/12/98 94/11/98 97/116/98 105/119/98
f 105/119/99 97/116/99 93/26/99 99/25/99
f 108/13/100 101/12/100 104/120/100 112/123/100
f 112/123/101 104/120/101 100/38/101 106/37/101
f 115/14/102 108/13/102 111/124/102 119/127/102
f 119/127/103 111/124/103 107/56/103 113/55/103
f 122/15/104 115/14/104 118/128/104 126/131/104
f 126/131/105 118/128/105 114/22/105 120/21/105
f 129/16/106 122/15/106 125/132/106 133/135/106
f 133/135/107 125/132/107 121/34/107 127/33/107
f 136/17/108 129/16/108 132/136/108 140/139/108
f 140/139/109 132/136/109 128/52/109 134/51/109
f 72/18/110 136/17/110 139/140/110 76/103/110
f 76/103/111 139/140/111 135/4/111 73/3/111
f 17/5/112 86/8/112 88/109/112 21/69/112
f 21/69/113 88/109/113 85/29/113 15/28/113
f 78/104/114 8/62/114 14/65/114 81/105/114
f 81/105/115 14/65/115 10/27/115 79/30/115
f 66/1/116 135/4/116 137/137/116 70/97/116
f 70/97/117 137/137/117 134/51/117 64/50/117
f 127/33/118 57/32/118 63/93/118 130/133/118
f 130/133/119 63/93/119 59/49/119 128/52/119
f 45/19/120 114/22/120 116/125/120 49/85/120
f 49/85/121 116/125/121 113/55/121 43/54/121
f 106/37/122 36/36/122 42/81/122 109/121/122
f 109/121/123 42/81/123 38/53/123 107/56/123
f 24/23/124 93/26/124 95/113/124 28/73/124
f 28/73/125 95/113/125 92/7/125 22/6/125
f 1/57/126 71/99/126 77/102/126 4/58/126
f 4/58/127 77/102/127 73/3/127 2/2/127
f 52/31/128 121/34/128 123/129/128 56/89/128
f 56/89/129 123/129/129 120/21/129 50/20/129
f 31/35/130 100/38/130 102/117/130 35/77/130
f 35/77/131 102/117/131 99/25/131 29/24/131
f 1/57/132 8/62/132 78/104/132 71/99/132
